{"glyphs":{":":{"x_min":0,"x_max":256,"ha":256,"o":"m 93 359 q 93 376 110 392 q 127 407 145 407 q 165 407 179 391 q 193 374 193 355 q 193 338 177 323 q 161 307 141 307 q 123 307 108 323 q 93 339 93 359 z m 93 96 q 93 114 110 129 q 127 144 145 144 q 165 144 179 127 q 193 111 193 92 q 193 75 177 60 q 161 44 141 44 q 123 44 108 60 q 93 77 93 96 z"},"$":{"x_min":0,"x_max":464,"ha":464,"o":"m 229 15 q 246 15 264 21 q 283 28 302 41 q 321 53 334 78 q 346 102 346 134 q 346 159 339 180 q 332 201 321 214 q 311 227 295 238 q 279 250 267 255 q 256 261 239 267 l 219 15 z m 190 18 l 211 278 l 182 291 q 172 295 152 306 q 131 317 120 325 q 109 334 94 348 q 78 363 70 377 q 62 392 55 411 q 49 431 49 453 q 49 489 65 518 q 82 548 109 566 q 136 584 167 594 q 199 604 231 604 l 237 604 l 243 676 l 271 674 l 266 603 q 301 601 333 591 q 365 580 385 577 q 398 508 402 448 q 396 443 393 443 q 390 442 380 442 q 346 555 264 575 l 246 346 q 423 280 423 165 q 423 155 422 144 q 420 132 416 115 q 411 97 403 80 q 395 64 379 47 q 363 30 343 17 q 323 5 291 -3 q 260 -11 221 -11 l 217 -11 l 210 -97 l 182 -95 l 188 -10 q 158 -8 114 2 q 70 12 42 12 q 32 50 28 79 q 24 107 21 164 q 30 168 32 169 q 33 169 44 167 q 58 104 96 66 q 134 28 190 18 z m 217 357 l 235 579 q 233 579 230 579 q 226 579 224 579 q 180 579 148 546 q 116 514 116 463 q 116 402 217 357 z"},"?":{"x_min":0,"x_max":420,"ha":420,"o":"m 109 572 q 109 552 114 546 q 120 538 120 522 q 120 506 109 496 q 98 487 83 487 q 68 487 56 497 q 44 506 44 530 q 44 581 92 620 q 135 659 211 659 q 284 659 327 618 q 371 576 371 508 q 371 489 367 472 q 363 455 354 439 q 344 424 336 413 q 329 402 313 389 q 298 375 291 370 l 267 351 q 227 319 217 301 q 204 275 204 228 l 204 184 q 204 174 188 174 q 173 174 173 184 l 173 230 q 173 258 176 279 q 179 300 194 332 q 209 363 239 391 q 269 420 282 445 q 295 470 295 504 q 295 554 268 594 q 241 634 201 634 q 162 634 135 615 q 109 595 109 572 z m 138 47 q 138 64 155 80 q 172 95 190 95 q 209 95 224 79 q 238 62 238 43 q 238 26 222 11 q 206 -5 186 -5 q 168 -5 153 11 q 138 27 138 47 z"},"<":{"x_min":0,"x_max":487,"ha":487,"o":"m 122 239 l 439 123 q 449 112 449 95 q 449 78 439 73 l 49 215 q 35 237 49 263 l 439 404 q 449 399 449 382 q 449 365 439 354 z"},"'":{"x_min":0,"x_max":190,"ha":190,"o":"m 79 426 q 53 585 53 594 q 53 612 68 628 q 83 644 104 644 q 122 644 131 634 q 139 625 139 611 q 139 604 131 559 l 114 472 l 106 430 z"},"=":{"x_min":0,"x_max":527,"ha":527,"o":"m 461 318 l 461 269 l 66 269 l 66 318 z m 461 193 l 461 144 l 66 144 l 66 193 z"},"a":{"x_min":0,"x_max":454,"ha":454,"o":"m 293 212 l 211 192 q 162 180 138 152 q 115 124 115 92 q 115 66 135 43 q 156 20 189 20 q 194 20 200 21 q 207 23 214 27 q 221 30 226 33 q 231 37 239 43 l 251 52 q 255 55 264 62 l 275 71 q 288 80 288 95 z m 288 46 l 286 46 l 267 31 q 235 6 215 -2 q 194 -10 161 -10 q 42 -10 42 88 q 42 135 85 171 q 127 206 199 222 l 289 242 q 294 244 294 263 q 294 302 287 329 q 280 357 269 371 q 257 385 245 391 q 232 397 219 397 q 189 397 166 385 q 142 373 142 352 q 142 339 144 333 q 147 327 147 316 q 147 305 135 292 q 122 279 103 279 q 86 279 76 290 q 65 301 65 318 q 65 355 116 387 q 168 419 227 419 q 368 419 363 257 l 358 115 q 357 85 359 68 q 361 51 371 40 q 380 30 398 30 q 407 30 413 34 q 418 38 422 42 q 425 46 427 46 q 430 46 436 42 q 441 38 441 33 q 441 30 431 20 q 421 10 401 0 q 381 -10 360 -10 q 304 -10 288 46 z"},"L":{"x_min":0,"x_max":512,"ha":512,"o":"m 191 109 q 193 29 249 29 l 321 29 q 352 29 377 36 q 402 43 419 54 q 436 65 449 83 q 462 101 470 119 q 478 137 484 160 q 488 161 490 161 q 493 161 495 160 q 498 160 499 159 q 500 159 502 157 q 505 156 507 155 q 500 89 481 -5 q 390 0 362 0 l 149 0 q 134 0 89 -2 q 44 -4 20 -5 q 15 0 15 7 q 15 14 20 18 q 49 20 63 22 q 77 24 88 33 q 99 43 102 60 q 105 77 106 109 q 109 233 109 321 q 109 412 106 536 q 105 568 102 585 q 99 602 88 612 q 77 621 63 623 q 49 625 20 627 q 15 631 15 638 q 15 646 20 650 q 41 649 81 647 q 121 645 148 645 q 176 645 217 647 q 258 649 278 650 q 283 646 283 638 q 283 631 278 627 q 258 626 248 625 q 237 624 226 621 q 214 617 209 612 q 205 606 200 596 q 195 585 193 571 q 192 558 191 536 q 188 423 188 320 q 188 274 191 109 z"},"3":{"x_min":0,"x_max":465,"ha":465,"o":"m 219 585 q 211 585 199 582 q 188 580 175 573 q 161 566 150 557 q 139 548 132 532 q 124 517 124 499 q 124 481 114 464 q 104 447 85 447 q 68 447 60 458 q 51 468 51 481 q 51 492 56 507 q 62 522 75 541 q 89 559 110 574 q 130 589 165 600 q 199 610 240 610 q 276 610 305 599 q 333 589 349 573 q 364 556 372 539 q 380 521 380 504 q 380 488 377 475 q 375 463 366 444 q 357 426 335 406 q 313 385 280 364 l 281 362 q 305 358 327 348 q 350 337 371 320 q 392 302 404 271 q 417 241 417 202 q 417 138 385 89 q 354 40 303 14 q 252 -11 192 -11 q 161 -11 128 -3 q 95 5 72 21 q 48 37 48 56 q 48 68 61 80 q 74 91 90 91 q 115 91 133 65 l 140 53 q 145 43 149 39 q 153 34 161 27 q 168 21 179 17 q 190 14 205 14 q 217 14 232 19 q 248 24 266 37 q 284 50 299 69 q 314 88 325 119 q 335 150 335 188 q 335 319 203 319 q 177 319 160 317 l 155 339 q 197 346 234 373 q 271 400 290 432 q 309 463 309 489 q 309 533 282 559 q 255 585 219 585 z"},";":{"x_min":0,"x_max":256,"ha":256,"o":"m 93 359 q 93 376 110 392 q 127 407 145 407 q 165 407 179 391 q 193 374 193 355 q 193 338 177 323 q 161 307 141 307 q 123 307 108 323 q 93 339 93 359 z m 140 95 q 164 95 184 66 q 203 38 203 -4 q 203 -53 169 -86 q 135 -120 86 -129 q 79 -122 79 -111 q 115 -102 141 -74 q 167 -47 167 -29 q 167 1 131 5 q 119 7 111 10 q 103 13 95 22 q 87 31 87 46 q 87 66 103 81 q 120 95 140 95 z"},"J":{"x_min":0,"x_max":347,"ha":347,"o":"m 161 -16 q 164 150 164 321 q 164 412 161 536 q 160 568 157 585 q 154 602 143 612 q 131 621 118 623 q 104 625 74 627 q 70 631 70 638 q 70 646 74 650 q 96 649 136 647 q 176 645 203 645 q 231 645 272 647 q 312 649 333 650 q 337 646 337 638 q 337 631 333 627 q 313 626 302 625 q 292 624 280 621 q 269 617 264 612 q 259 606 255 596 q 250 585 248 571 q 247 558 246 536 q 243 423 243 320 q 243 82 244 27 q 246 -54 164 -124 q 133 -150 107 -160 q 81 -170 44 -170 q 21 -170 -7 -154 q -34 -138 -34 -112 q -34 -95 -19 -85 q -4 -76 10 -76 q 22 -76 31 -80 q 40 -84 43 -89 q 46 -93 52 -102 q 57 -111 59 -113 q 73 -132 90 -132 q 111 -132 136 -100 q 160 -68 161 -16 z"},"V":{"x_min":0,"x_max":674,"ha":674,"o":"m 470 627 q 466 631 466 638 q 466 646 470 650 q 495 649 532 647 q 568 645 579 645 q 590 645 618 647 q 646 649 667 650 q 671 646 671 638 q 671 631 667 627 q 644 624 625 615 q 607 605 595 588 q 582 571 575 557 q 568 544 559 521 l 352 11 q 342 -12 328 -12 q 314 -12 305 11 l 107 523 q 95 554 88 570 q 80 586 69 600 q 57 614 43 619 q 29 625 8 627 q 3 631 3 638 q 2 646 7 650 q 29 649 64 647 q 100 645 121 645 q 142 645 181 647 q 221 649 242 650 q 247 646 247 638 q 247 631 242 627 q 193 622 183 600 q 173 579 192 534 l 352 127 l 360 114 l 365 127 l 523 528 q 532 550 534 565 q 537 582 532 595 q 528 609 513 617 q 497 625 470 627 z"},"\"":{"x_min":0,"x_max":336,"ha":336,"o":"m 215 427 q 189 586 189 595 q 189 613 204 629 q 219 645 240 645 q 258 645 267 635 q 275 625 275 612 q 275 604 267 559 q 259 514 250 473 l 242 431 z m 89 426 q 63 585 63 594 q 63 612 78 628 q 93 644 114 644 q 132 644 140 634 q 149 625 149 611 q 149 604 141 558 q 133 513 125 472 l 116 430 z"},"7":{"x_min":0,"x_max":465,"ha":465,"o":"m 160 545 q 132 545 110 524 q 88 503 73 448 q 65 447 51 451 l 57 489 l 63 534 q 66 549 68 572 q 70 594 71 611 q 71 614 75 614 q 79 613 92 606 q 105 600 125 600 l 331 600 q 371 600 408 611 l 424 599 q 289 269 195 -10 l 135 -13 l 127 -6 q 258 288 362 545 z"},"S":{"x_min":0,"x_max":485,"ha":485,"o":"m 395 631 q 409 558 413 502 q 411 500 410 500 q 408 499 407 498 q 406 498 405 497 l 402 496 q 402 496 400 496 l 397 496 l 394 496 l 390 496 q 348 634 232 634 q 189 634 155 595 q 121 556 121 512 q 121 492 128 474 q 135 456 149 441 q 164 427 178 416 q 193 405 213 395 q 234 385 248 378 q 263 372 282 365 q 301 358 307 355 q 337 342 359 328 q 382 314 402 294 q 422 274 433 246 q 444 218 444 184 q 444 137 419 94 q 394 50 350 23 q 297 -10 227 -10 q 179 -10 127 2 q 75 13 47 13 q 38 51 34 80 q 30 108 27 165 q 36 169 37 170 q 39 170 49 168 q 65 94 115 55 q 164 16 235 16 q 294 16 328 52 q 362 88 362 149 q 362 173 356 193 q 351 212 340 227 q 328 242 317 253 q 305 264 287 273 q 269 283 256 288 q 244 294 224 302 q 205 309 195 313 q 163 328 140 342 q 116 356 94 376 q 73 396 62 424 q 51 451 51 485 q 51 562 107 610 q 163 658 241 658 q 284 658 309 653 q 333 648 354 641 q 374 634 395 631 z"},"}":{"x_min":0,"x_max":267,"ha":267,"o":"m 101 -68 l 91 108 q 87 168 106 199 q 125 229 166 247 q 122 266 104 300 q 87 334 91 399 l 101 558 q 105 617 80 649 q 55 682 19 682 q 15 687 15 694 q 15 702 19 706 q 60 706 86 699 q 112 693 131 675 q 150 658 157 625 q 164 593 161 543 l 151 373 q 148 330 171 297 q 193 265 233 255 l 233 240 q 192 229 171 196 q 149 163 151 124 l 161 -60 q 166 -144 131 -178 q 97 -213 19 -213 q 15 -208 15 -201 q 15 -193 19 -189 q 61 -181 83 -153 q 104 -126 101 -68 z"},"Z":{"x_min":0,"x_max":598,"ha":598,"o":"m 545 -5 q 445 0 418 0 l 54 0 q 35 0 35 15 q 35 28 43 38 l 242 324 q 362 490 432 579 q 448 602 448 608 q 448 617 424 616 l 209 612 q 155 611 124 581 q 92 551 75 496 q 70 496 68 497 q 65 497 62 499 q 59 500 55 501 q 73 592 77 656 q 213 645 258 645 l 479 645 q 496 645 522 646 q 548 647 552 647 q 565 647 565 636 q 565 627 561 619 q 556 611 541 591 q 396 404 166 72 q 158 58 158 52 q 158 43 165 35 q 171 27 183 28 l 386 32 q 408 33 427 37 q 445 41 458 47 q 472 52 484 63 q 497 75 504 83 q 512 92 521 108 q 530 124 534 133 l 547 161 q 549 167 551 170 q 557 170 560 169 q 563 168 567 167 q 570 166 572 165 q 553 84 545 -5 z"},"x":{"x_min":0,"x_max":485,"ha":485,"o":"m 176 341 l 237 256 q 241 250 247 249 q 253 247 257 249 q 261 251 263 254 l 328 340 q 345 366 339 377 q 333 388 306 391 q 302 396 302 403 q 302 410 306 414 q 324 414 349 411 q 374 409 390 409 q 408 409 431 411 q 454 414 463 414 q 467 410 467 403 q 467 396 463 391 q 405 386 356 327 l 272 225 q 268 218 273 211 l 363 90 q 393 50 419 35 q 445 21 474 18 q 479 14 479 7 q 479 0 474 -5 q 458 -4 434 -2 q 411 0 390 0 q 371 0 339 -2 q 307 -4 291 -5 q 287 0 287 7 q 287 14 291 18 q 309 21 315 25 q 321 30 316 43 q 312 56 294 80 l 236 156 q 226 169 215 154 l 152 68 q 137 46 143 33 q 149 21 171 18 q 175 14 175 7 q 175 0 171 -5 q 154 -4 131 -2 q 107 0 87 0 q 68 0 50 -2 q 33 -4 15 -5 q 11 0 11 7 q 11 14 15 18 q 44 20 68 33 q 92 47 122 83 l 206 186 q 208 188 208 190 q 208 192 207 194 q 206 195 204 197 q 202 199 201 200 l 114 321 q 65 387 19 391 q 15 396 15 403 q 15 410 19 414 q 37 414 61 411 q 85 409 100 409 q 116 409 150 411 q 184 414 201 414 q 206 410 206 403 q 206 396 201 391 q 168 387 163 377 q 158 368 176 341 z"},")":{"x_min":0,"x_max":298,"ha":298,"o":"m 254 252 q 254 118 195 -2 q 136 -123 42 -203 q 39 -203 37 -202 q 35 -201 33 -199 q 32 -197 31 -196 l 29 -190 q 28 -187 28 -185 q 43 -168 56 -151 q 70 -134 94 -92 q 119 -50 135 -5 q 152 40 165 109 q 178 178 178 252 q 178 519 28 691 q 28 691 29 694 q 30 697 30 698 q 31 698 31 700 q 32 702 33 703 q 34 704 35 705 q 37 706 38 707 q 40 708 42 708 q 84 671 119 628 q 153 585 175 547 q 197 509 213 467 q 229 425 236 394 q 244 363 248 330 q 252 297 253 282 q 254 267 254 252 z"},"&":{"x_min":0,"x_max":692,"ha":692,"o":"m 250 338 q 178 295 152 251 q 125 206 125 148 q 125 114 136 88 q 147 61 166 46 q 184 31 203 23 q 223 15 242 15 q 268 15 290 22 q 311 30 330 46 q 350 62 365 80 q 380 97 401 126 l 308 252 q 258 322 250 338 z m 420 97 q 382 45 339 18 q 295 -10 235 -10 q 198 -10 164 1 q 130 11 103 31 q 76 51 59 83 q 43 116 43 156 q 43 215 88 265 q 133 315 232 366 q 177 457 177 517 q 177 540 187 562 q 197 585 216 604 q 235 623 265 635 q 295 647 331 647 q 386 647 422 621 q 459 594 459 549 q 459 510 421 461 q 384 412 310 371 q 337 324 439 187 q 481 250 517 315 q 528 336 532 349 q 537 363 537 371 q 537 379 528 383 q 520 387 510 389 q 501 390 482 391 q 478 396 478 403 q 478 410 482 414 q 488 414 505 412 q 523 411 541 410 q 559 409 574 409 q 595 409 626 412 q 657 414 658 414 q 663 410 663 403 q 663 396 658 391 q 641 390 632 389 q 623 388 612 384 q 601 380 595 376 q 589 371 580 360 q 571 350 564 337 l 544 302 q 493 212 457 160 l 494 107 q 519 72 539 56 q 560 39 573 39 q 617 39 647 98 q 658 98 668 88 q 647 40 618 15 q 589 -10 565 -10 q 550 -10 540 -8 q 530 -6 515 0 q 500 5 483 20 q 468 34 450 57 z m 293 399 q 337 428 364 472 q 390 516 390 547 q 390 581 373 602 q 356 622 326 622 q 295 622 273 598 q 251 573 251 527 q 251 506 262 469 q 273 432 293 399 z"},"_":{"x_min":0,"x_max":486,"ha":486,"o":"m 476 -110 q 482 -116 482 -132 q 482 -148 476 -154 l 10 -154 q 4 -148 4 -132 q 4 -116 10 -110 z"},"v":{"x_min":0,"x_max":475,"ha":475,"o":"m 314 391 q 310 396 310 403 q 310 410 314 414 q 330 414 355 411 q 380 409 399 409 q 413 409 435 411 q 457 414 464 414 q 468 410 468 403 q 468 396 464 391 q 455 390 448 389 q 440 387 434 384 l 423 377 q 419 375 414 368 l 407 359 q 404 356 400 348 l 395 336 q 393 333 389 323 q 384 312 383 309 l 256 10 q 250 -4 245 -8 q 241 -11 233 -11 q 217 -11 209 9 l 87 310 q 69 354 61 365 q 44 387 11 391 q 7 395 7 402 q 7 409 11 414 q 28 413 52 411 q 76 409 90 409 q 106 409 139 411 q 172 413 187 414 q 191 409 191 402 q 191 395 187 391 q 177 390 170 388 q 163 387 158 385 q 153 382 150 380 q 147 377 147 373 q 146 368 146 365 q 146 361 148 354 q 150 348 151 344 q 153 339 156 330 l 162 316 l 231 132 q 240 107 246 100 q 252 93 258 99 q 264 105 274 129 l 351 316 q 367 352 359 370 q 351 388 314 391 z"},"O":{"x_min":0,"x_max":695,"ha":695,"o":"m 327 634 q 299 634 271 622 q 244 611 217 586 q 191 561 171 526 q 150 491 138 439 q 126 388 126 327 q 126 271 139 221 q 152 171 176 134 q 199 97 229 69 q 259 42 294 28 q 330 14 366 14 q 453 14 511 96 q 569 178 569 310 q 569 384 550 446 q 530 507 497 548 q 464 589 420 611 q 376 634 327 634 z m 659 329 q 659 202 599 116 q 557 56 492 23 q 428 -10 346 -10 q 283 -10 226 13 q 169 36 127 76 q 85 117 61 177 q 36 238 36 310 q 36 445 103 536 q 145 594 206 626 q 267 658 340 658 q 430 658 502 620 q 574 581 616 506 q 659 430 659 329 z"},"(":{"x_min":0,"x_max":298,"ha":298,"o":"m 44 252 q 44 386 103 506 q 162 626 256 707 q 259 707 261 706 q 263 705 265 703 q 266 701 267 700 l 269 694 q 270 691 270 689 q 260 678 251 667 q 243 656 226 633 q 210 609 197 584 q 184 560 169 523 q 154 486 144 447 q 134 408 127 357 q 120 306 120 252 q 120 178 133 109 q 146 40 163 -5 q 179 -50 204 -92 q 228 -135 241 -152 q 254 -169 270 -187 q 270 -188 269 -190 q 268 -193 268 -194 q 267 -194 266 -196 q 266 -198 265 -199 q 264 -200 262 -201 q 261 -202 260 -203 q 258 -204 256 -204 q 213 -167 179 -124 q 145 -81 123 -43 q 101 -5 85 37 q 69 79 62 110 q 54 141 50 174 q 45 207 45 222 q 44 237 44 252 z"},"C":{"x_min":0,"x_max":648,"ha":648,"o":"m 359 -10 q 296 -10 243 9 q 190 27 153 58 q 115 89 89 131 q 62 173 50 219 q 37 266 37 315 q 37 393 65 460 q 93 527 143 573 q 236 658 360 658 q 414 658 457 648 q 500 638 530 626 q 561 615 579 613 q 597 500 601 458 q 592 452 578 453 q 524 631 355 631 q 313 631 267 607 q 220 583 184 540 q 156 506 141 452 q 125 398 125 334 q 125 290 134 245 q 144 201 163 161 q 182 120 209 89 q 236 58 274 40 q 313 21 358 21 q 425 21 480 50 q 535 79 590 140 q 604 140 613 125 q 562 59 497 24 q 432 -10 359 -10 z"},"W":{"x_min":0,"x_max":981,"ha":981,"o":"m 842 565 q 847 581 844 592 q 841 604 830 611 q 819 618 806 622 q 793 626 776 627 q 772 631 772 638 q 772 646 776 650 q 796 649 835 647 q 874 645 887 645 q 900 645 927 647 q 955 649 974 650 q 978 646 978 638 q 978 631 974 627 q 936 625 912 604 q 888 583 877 553 l 681 11 q 673 -12 653 -12 q 643 -12 633 -6 q 624 0 620 12 l 502 367 q 494 395 488 395 q 482 395 475 370 l 335 12 q 327 -12 311 -12 q 298 -12 288 -6 q 277 1 273 12 l 91 556 q 78 596 60 610 q 42 625 7 627 q 3 631 3 638 q 3 646 7 650 q 25 649 53 647 q 82 645 104 645 q 126 645 167 647 q 208 649 218 650 q 223 646 223 638 q 223 631 218 627 q 190 625 177 611 q 164 597 172 572 l 322 111 l 329 87 l 338 111 l 464 442 q 466 448 466 467 q 466 478 457 508 l 441 554 q 438 565 432 576 q 425 587 415 599 q 405 610 389 618 q 374 626 354 627 q 350 631 350 638 q 350 646 354 650 q 372 649 404 647 q 437 645 458 645 q 479 645 520 647 q 561 649 582 650 q 586 646 586 638 q 586 631 582 627 q 550 624 532 607 q 514 590 525 554 l 669 109 l 676 88 l 684 109 z"},"A":{"x_min":0,"x_max":699,"ha":699,"o":"m 261 278 l 439 278 l 343 555 l 340 555 l 235 296 q 232 288 239 283 q 245 278 261 278 z m 147 69 q 143 60 144 53 q 146 46 147 41 q 149 36 156 32 q 163 28 168 26 q 174 23 183 22 q 192 21 200 20 q 207 19 216 18 q 221 14 221 7 q 221 0 216 -5 q 202 -4 167 -2 q 131 0 108 0 q 87 0 56 -2 q 25 -4 9 -5 q 5 0 5 7 q 5 14 9 18 q 46 21 69 35 q 91 50 109 92 l 341 638 q 359 638 394 658 l 603 76 q 608 62 615 51 q 623 41 630 35 q 638 29 650 25 q 662 21 670 21 q 678 20 692 18 q 697 14 697 7 q 697 0 692 -5 q 679 -4 637 -2 q 595 0 571 0 q 549 0 501 -2 q 453 -4 440 -5 q 436 0 436 7 q 436 14 440 18 q 488 21 500 26 q 524 35 515 62 l 451 246 l 243 246 q 226 246 219 241 q 212 235 208 224 z"},"f":{"x_min":0,"x_max":307,"ha":307,"o":"m 95 480 q 92 573 128 627 q 151 662 186 680 q 221 698 257 698 q 287 698 306 694 q 325 690 343 678 q 374 655 374 630 q 374 616 360 604 q 346 593 333 593 q 309 593 295 623 q 284 650 272 663 q 259 676 239 676 q 198 676 178 611 q 167 574 164 496 q 163 448 163 409 l 267 409 q 274 409 274 403 l 274 388 q 274 380 253 380 l 163 380 q 162 171 164 104 q 165 83 166 70 q 167 58 170 48 q 174 37 178 33 q 181 28 191 25 q 201 21 210 20 q 220 19 239 18 q 243 14 243 7 q 243 0 239 -5 q 222 -4 187 -2 q 151 0 127 0 q 107 0 80 -2 q 52 -4 33 -5 q 29 0 29 7 q 29 14 33 18 q 48 19 56 20 q 63 21 71 24 q 79 28 83 33 q 86 38 89 48 q 92 58 94 70 q 95 82 95 104 q 97 171 96 380 l 29 380 q 24 380 24 386 l 24 395 q 24 409 46 409 l 96 409 q 96 449 95 480 z"},"Q":{"x_min":0,"x_max":695,"ha":695,"o":"m 327 634 q 299 634 271 622 q 244 611 217 586 q 191 561 171 526 q 150 491 138 439 q 126 388 126 327 q 126 271 139 221 q 152 171 176 134 q 199 97 229 69 q 259 42 294 28 q 330 14 366 14 q 453 14 511 96 q 569 178 569 310 q 569 384 550 446 q 530 507 497 548 q 464 589 420 611 q 376 634 327 634 z m 659 329 q 659 202 599 116 q 529 16 407 -5 q 379 -13 342 -32 q 304 -51 269 -77 q 280 -75 294 -75 q 331 -75 371 -88 q 412 -101 442 -116 q 472 -132 508 -145 q 544 -157 573 -157 q 596 -157 620 -146 q 644 -135 660 -115 l 677 -127 q 647 -170 613 -189 q 580 -209 533 -209 q 497 -209 463 -199 q 429 -189 402 -175 l 351 -147 q 326 -133 299 -124 q 272 -114 247 -114 q 231 -114 209 -128 q 187 -143 174 -173 l 135 -153 q 162 -113 212 -73 q 262 -34 318 -9 q 259 -4 208 21 q 157 45 118 85 q 80 125 58 184 q 36 242 36 310 q 36 445 103 536 q 145 594 206 626 q 267 658 340 658 q 430 658 502 620 q 574 581 616 506 q 659 430 659 329 z"},"w":{"x_min":0,"x_max":713,"ha":713,"o":"m 194 391 q 161 389 154 370 q 146 350 161 316 l 237 119 q 243 104 249 99 q 254 95 259 100 q 265 105 271 121 l 337 283 l 329 305 q 328 309 324 319 l 319 333 q 318 337 314 346 q 311 354 308 358 q 306 361 302 368 q 297 374 293 377 l 283 384 q 277 387 271 389 q 264 391 256 391 q 251 396 251 403 q 251 410 256 414 q 272 414 298 411 q 324 409 339 409 q 353 409 385 411 q 418 414 435 414 q 439 410 439 403 q 439 396 435 391 q 398 388 390 371 q 382 354 396 321 l 478 112 q 483 98 488 95 q 493 93 497 98 q 500 103 506 116 l 586 315 q 591 328 593 336 q 596 344 596 355 q 596 366 591 373 q 586 379 573 385 q 561 390 540 391 q 536 396 536 403 q 536 410 540 414 q 555 414 584 411 q 614 409 634 409 q 653 409 673 411 q 693 414 701 414 q 706 410 706 403 q 706 396 701 391 q 684 390 671 384 q 658 377 648 364 q 638 351 633 340 q 628 330 620 311 l 496 9 q 488 -11 474 -11 q 459 -11 451 8 l 353 244 l 256 10 q 247 -11 234 -11 q 219 -11 211 8 l 86 316 q 69 357 55 372 q 42 388 10 391 q 5 396 5 403 q 5 410 10 414 q 18 414 47 411 q 77 409 94 409 q 111 409 145 411 q 179 414 194 414 q 198 410 198 403 q 198 396 194 391 z"},"-":{"x_min":0,"x_max":338,"ha":338,"o":"m 271 231 l 55 231 q 49 231 47 231 q 45 231 42 234 q 40 236 40 240 q 40 253 48 264 q 56 275 65 275 l 284 275 q 290 275 292 274 q 294 274 296 272 q 298 270 298 265 q 298 255 289 243 q 280 231 271 231 z"},"E":{"x_min":0,"x_max":567,"ha":567,"o":"m 304 357 q 332 357 346 359 q 362 361 372 365 q 382 368 387 377 q 392 386 393 396 q 395 405 396 424 q 400 428 407 428 q 414 428 418 424 q 417 414 416 385 q 414 357 414 338 q 414 322 416 299 q 417 276 418 260 q 414 255 407 255 q 400 255 396 260 q 395 276 394 284 q 392 292 387 302 q 382 312 372 316 q 363 321 346 324 q 331 327 304 327 l 187 328 q 186 153 189 69 q 189 49 199 37 q 209 26 226 26 l 382 26 q 474 26 514 170 q 525 171 527 171 q 529 170 538 165 q 524 72 502 -5 q 422 0 374 0 l 152 0 q 137 0 90 -2 q 44 -4 20 -5 q 16 0 16 7 q 16 14 20 18 q 40 19 51 20 q 62 21 73 24 q 83 28 88 33 q 93 39 98 49 q 102 60 104 73 q 105 87 106 109 q 108 191 108 321 q 108 454 106 536 q 105 558 104 572 q 102 585 98 596 q 93 606 88 612 q 83 617 73 621 q 62 624 51 625 q 40 626 20 627 q 16 631 16 638 q 16 646 20 650 q 45 649 90 647 q 135 645 150 645 l 442 645 q 453 645 460 646 q 468 647 478 649 q 488 651 492 652 q 496 652 496 649 q 498 643 506 586 q 515 530 518 501 q 505 494 494 496 q 475 556 463 576 q 435 617 382 618 l 226 618 q 209 618 199 606 q 190 593 189 574 q 188 538 187 483 q 187 429 187 393 l 187 356 z"},"s":{"x_min":0,"x_max":374,"ha":374,"o":"m 46 126 q 56 136 65 127 q 81 63 107 38 q 116 29 136 21 q 155 12 180 12 q 209 12 237 34 q 264 56 264 89 q 264 120 243 141 q 223 160 164 185 q 106 209 83 236 q 59 262 59 312 q 59 357 99 388 q 140 419 194 419 q 216 419 239 416 q 262 412 286 407 q 310 401 318 400 q 317 389 315 356 q 313 323 313 304 q 309 300 302 299 q 296 299 292 303 q 278 397 194 397 q 168 397 146 376 q 123 354 123 326 q 123 291 147 271 q 170 253 222 233 q 276 212 305 184 q 334 156 334 111 q 334 78 318 53 q 302 28 278 15 q 253 2 229 -4 q 205 -10 182 -10 q 136 -10 95 1 q 88 3 76 3 q 66 3 52 0 q 52 56 46 126 z"},">":{"x_min":0,"x_max":487,"ha":487,"o":"m 366 236 l 49 352 q 39 363 39 380 q 39 397 49 402 l 439 260 q 453 238 439 212 l 49 71 q 39 75 39 93 q 39 110 49 121 z"},"l":{"x_min":0,"x_max":253,"ha":253,"o":"m 93 103 q 96 229 96 355 q 96 519 93 576 q 92 595 91 606 q 89 618 86 627 q 83 636 80 640 q 77 645 69 648 q 62 651 54 652 q 46 653 32 654 q 26 660 29 673 q 58 675 99 683 q 140 691 157 698 q 170 698 170 689 q 167 664 166 599 q 164 472 164 329 q 164 202 166 103 q 167 82 167 69 q 168 57 172 47 q 176 37 179 32 q 183 27 192 24 q 201 21 209 20 q 218 19 235 18 q 239 14 239 7 q 239 0 235 -5 q 217 -4 184 -2 q 151 0 129 0 q 106 0 74 -2 q 41 -4 24 -5 q 20 0 20 7 q 20 14 24 18 q 41 19 49 20 q 58 21 67 24 q 76 27 80 32 q 83 37 87 47 q 90 57 91 69 q 92 82 93 103 z"},"8":{"x_min":0,"x_max":465,"ha":465,"o":"m 236 585 q 193 585 165 556 q 137 528 137 491 q 137 464 152 438 q 167 413 210 385 l 241 366 q 256 377 262 382 q 268 386 284 401 q 300 416 309 427 q 317 438 324 454 q 332 470 332 486 q 332 524 307 555 q 281 585 236 585 z m 394 485 q 394 467 385 448 q 377 429 366 416 q 355 402 337 386 q 318 370 308 362 l 278 342 l 339 302 q 419 249 419 162 q 419 132 407 103 q 395 73 372 47 q 349 21 311 5 q 273 -11 226 -11 q 145 -11 96 30 q 48 71 48 146 q 48 215 106 266 q 121 280 182 326 l 164 337 q 117 366 94 399 q 72 431 72 472 q 72 531 119 571 q 166 610 241 610 q 313 610 354 575 q 394 540 394 485 z m 228 14 q 243 14 259 18 q 274 21 292 31 q 309 40 323 53 q 336 67 345 90 q 354 113 354 142 q 354 220 264 275 l 217 303 q 187 283 164 259 q 142 235 130 214 q 119 192 114 176 q 109 159 109 146 q 109 114 121 88 q 133 62 152 46 q 170 31 190 22 q 210 14 228 14 z"},"\\":{"x_min":0,"x_max":287,"ha":287,"o":"m 55 698 l 285 -48 l 241 -48 l 11 698 z"},"e":{"x_min":0,"x_max":435,"ha":435,"o":"m 114 259 l 307 264 q 321 265 321 277 q 321 333 294 365 q 268 396 231 396 q 216 396 200 389 q 184 383 166 368 q 148 354 134 325 q 120 297 114 259 z m 378 89 q 394 87 398 73 q 368 34 326 12 q 283 -10 231 -10 q 131 -10 80 51 q 35 104 35 193 q 35 245 53 289 q 71 333 99 361 q 128 388 162 404 q 196 419 231 419 q 270 419 299 409 q 329 399 347 383 q 365 367 377 344 q 388 322 393 299 q 397 277 397 251 q 397 244 392 239 q 387 234 379 234 l 111 230 q 111 145 141 96 q 162 62 194 44 q 226 27 255 27 q 293 27 320 42 q 348 58 378 89 z"},"b":{"x_min":0,"x_max":471,"ha":471,"o":"m 166 356 q 156 347 152 338 q 148 330 148 316 q 148 108 150 58 q 167 36 183 25 q 198 13 218 13 q 283 13 321 71 q 359 128 359 214 q 359 291 326 340 q 311 362 290 375 q 269 387 247 387 q 202 387 166 356 z m 159 376 q 208 419 266 419 q 332 419 384 366 q 435 314 435 231 q 435 176 416 130 q 396 83 366 53 q 335 23 298 7 q 261 -10 224 -10 q 171 -10 136 19 q 123 31 110 16 q 106 11 79 -11 q 75 -11 73 -10 q 70 -9 69 -9 q 68 -8 67 -5 q 65 -1 64 0 q 64 2 68 14 q 72 25 74 38 q 77 51 77 68 q 79 113 79 322 q 80 533 78 576 q 77 612 71 626 q 66 642 55 647 q 44 652 17 654 q 9 662 12 673 q 42 675 83 683 q 124 691 141 698 q 153 698 153 689 q 152 661 150 599 l 148 380 q 148 374 151 373 q 155 372 159 376 z"},"%":{"x_min":0,"x_max":637,"ha":637,"o":"m 433 83 q 433 47 447 29 q 460 11 477 11 q 503 11 526 38 q 549 65 561 100 q 573 135 573 164 q 573 198 556 216 q 538 233 523 233 q 500 233 479 207 q 457 182 445 147 q 433 113 433 83 z m 378 98 q 378 161 418 208 q 458 256 512 256 q 529 256 543 252 q 557 248 570 238 q 583 229 591 210 q 598 191 598 165 q 598 139 590 109 q 581 79 566 52 q 551 24 526 6 q 500 -12 471 -12 q 428 -12 403 21 q 378 55 378 98 z m 364 511 q 390 511 415 515 q 439 520 471 535 q 502 550 521 575 l 544 559 l 134 -12 l 109 3 l 468 503 q 420 484 354 484 q 336 484 312 490 q 288 497 274 505 q 277 495 277 480 q 277 455 268 425 q 260 396 245 368 q 229 340 204 322 q 179 303 149 303 q 105 303 81 336 q 57 370 57 412 q 57 478 96 524 q 136 571 190 571 q 210 571 229 563 q 249 556 257 546 l 280 535 l 300 525 q 305 523 315 520 q 326 516 331 514 q 337 513 345 512 q 354 511 364 511 z m 111 398 q 111 363 125 344 q 139 326 155 326 q 181 326 204 353 q 227 379 240 414 q 252 449 252 479 q 252 513 235 530 q 218 548 201 548 q 178 548 156 522 q 135 497 123 462 q 111 428 111 398 z"},"m":{"x_min":0,"x_max":771,"ha":771,"o":"m 180 313 q 166 298 164 273 q 161 188 164 104 q 165 83 166 71 q 167 58 170 48 q 173 38 176 33 q 178 29 186 25 q 193 21 200 21 q 207 20 221 18 q 226 14 226 7 q 226 0 221 -5 q 203 -4 176 -2 q 148 0 129 0 q 106 0 75 -2 q 44 -4 28 -5 q 23 0 23 7 q 23 14 28 18 q 43 19 51 20 q 59 21 67 25 q 75 28 79 33 q 83 38 86 48 q 89 58 91 71 q 92 83 93 104 q 97 208 93 312 q 92 334 90 345 q 87 356 80 363 q 72 371 62 373 q 52 375 31 377 q 27 389 29 394 q 113 405 156 421 q 168 421 168 414 q 163 370 163 341 q 163 337 164 335 q 165 334 166 334 q 167 335 168 336 q 169 336 171 338 q 172 340 173 341 q 248 419 324 419 q 360 419 386 399 q 411 379 418 349 q 420 340 428 348 q 463 384 507 402 q 552 419 593 419 q 623 419 644 407 q 664 396 674 374 q 685 353 688 327 q 691 301 690 267 q 687 188 690 104 q 691 62 696 47 q 701 31 712 25 q 723 20 751 18 q 755 14 755 7 q 755 0 751 -5 q 732 -4 704 -2 q 676 0 655 0 q 634 0 606 -2 q 578 -4 560 -5 q 557 0 557 7 q 557 14 560 18 q 581 20 590 22 q 600 24 607 33 q 614 43 616 58 q 618 72 619 104 q 623 198 619 284 q 617 330 602 350 q 587 369 558 369 q 482 369 425 306 q 426 287 426 268 q 422 186 426 104 q 427 73 429 58 q 431 43 438 33 q 445 24 454 22 q 462 20 483 18 q 486 14 486 7 q 486 0 483 -5 q 464 -4 438 -2 q 412 0 391 0 q 371 0 342 -2 q 314 -4 296 -5 q 292 0 292 7 q 292 14 296 18 q 309 19 315 20 q 322 21 329 23 q 336 25 340 29 q 343 33 346 38 q 350 43 351 53 q 353 63 354 75 q 354 86 355 104 q 358 193 355 282 q 352 369 290 369 q 268 369 238 354 q 208 340 180 313 z"},"#":{"x_min":0,"x_max":465,"ha":465,"o":"m 279 245 l 297 360 l 184 360 l 165 245 z m 335 360 l 316 245 l 411 245 l 404 192 l 310 192 l 280 14 l 242 14 l 269 192 l 157 192 l 128 14 l 91 14 l 119 192 l 26 192 l 34 245 l 128 245 l 146 360 l 53 360 l 61 413 l 154 413 l 183 592 l 221 592 l 191 413 l 305 413 l 333 592 l 371 592 l 342 413 l 438 413 l 430 360 z"},",":{"x_min":0,"x_max":220,"ha":220,"o":"m 104 95 q 128 95 147 66 q 167 38 167 -4 q 167 -53 133 -86 q 99 -120 50 -129 q 43 -122 43 -111 q 79 -102 105 -74 q 131 -47 131 -29 q 131 1 95 5 q 86 6 80 8 q 74 10 67 14 q 59 19 55 27 q 51 35 51 46 q 51 66 67 81 q 83 95 104 95 z"},"n":{"x_min":0,"x_max":525,"ha":525,"o":"m 175 341 q 245 419 342 419 q 367 419 389 410 q 411 402 423 386 q 442 359 442 301 q 442 295 442 288 q 442 281 441 272 q 441 263 441 258 q 438 181 441 104 q 442 73 444 58 q 446 43 455 34 q 463 24 472 22 q 482 20 505 18 q 509 14 509 7 q 509 0 505 -5 q 486 -4 457 -2 q 428 0 407 0 q 387 0 358 -2 q 329 -4 311 -5 q 308 0 308 7 q 308 14 311 18 q 329 20 336 21 q 344 23 352 28 q 360 32 363 42 q 365 52 367 65 q 369 79 370 104 q 374 189 370 271 q 370 274 370 283 q 370 292 369 295 l 369 306 q 368 313 368 317 q 367 321 366 327 q 365 333 363 337 q 362 341 360 345 q 352 361 338 370 q 324 379 309 379 q 280 379 245 364 q 209 349 183 323 q 168 306 167 283 q 165 229 167 104 q 168 73 169 58 q 171 43 178 34 q 186 24 194 22 q 203 20 224 18 q 229 14 229 7 q 229 0 224 -5 q 206 -4 179 -2 q 152 0 133 0 q 110 0 78 -2 q 46 -4 30 -5 q 25 0 25 7 q 25 14 30 18 q 46 20 55 21 q 63 21 72 25 q 81 29 84 33 q 88 38 91 48 q 95 58 96 71 q 97 83 97 104 q 101 225 97 312 q 96 334 94 345 q 92 356 84 364 q 76 371 66 373 q 57 375 35 377 q 31 389 33 394 q 116 405 159 421 q 171 421 171 414 q 166 370 166 341 q 166 329 174 340 z"},"h":{"x_min":0,"x_max":511,"ha":511,"o":"m 157 273 q 157 154 159 104 q 160 83 161 70 q 162 58 165 48 q 168 37 171 33 q 173 28 181 25 q 188 21 195 20 q 202 19 216 18 q 220 14 220 7 q 220 0 216 -5 q 197 -4 171 -2 q 145 0 125 0 q 103 0 71 -2 q 40 -4 23 -5 q 19 0 19 7 q 19 14 23 18 q 42 20 51 21 q 60 23 69 27 q 78 31 81 41 q 84 51 87 65 q 89 79 90 104 q 91 149 91 340 q 91 525 90 576 q 89 597 88 607 q 87 620 84 629 q 82 638 79 642 q 76 646 69 649 q 62 651 57 652 q 51 653 39 653 q 32 654 29 654 q 21 662 23 673 q 52 675 93 683 q 133 691 151 698 q 163 698 163 689 l 162 656 q 161 635 159 599 l 156 341 q 156 327 166 341 q 236 419 330 419 q 384 419 409 386 q 436 352 432 258 q 429 179 432 104 q 433 83 434 71 q 435 58 438 48 q 442 38 445 33 q 448 29 457 25 q 465 21 473 21 q 480 20 496 18 q 500 14 500 7 q 500 0 496 -5 q 478 -4 448 -2 q 419 0 398 0 q 377 0 349 -2 q 321 -4 303 -5 q 300 0 300 7 q 300 14 303 18 q 318 20 325 21 q 332 21 340 25 q 348 29 350 33 q 353 38 356 48 q 359 59 360 71 q 361 83 362 104 q 365 181 362 261 q 359 333 348 355 q 340 371 326 380 q 312 389 297 389 q 249 389 173 313 q 157 297 157 273 z"},"z":{"x_min":0,"x_max":410,"ha":410,"o":"m 73 419 q 79 418 87 415 q 96 413 106 411 q 115 409 129 409 l 290 409 q 302 409 316 410 q 330 410 339 411 q 349 411 350 411 q 361 411 361 404 q 361 396 344 369 q 344 369 308 308 l 258 227 l 215 159 q 185 111 163 79 q 140 47 120 22 l 252 22 q 286 22 305 42 q 324 61 345 105 l 359 133 q 368 133 377 127 q 366 52 347 -3 l 65 0 q 43 0 43 11 q 43 18 52 31 q 143 155 281 387 l 151 384 q 101 382 74 287 q 64 286 62 286 q 61 287 53 290 q 66 366 67 413 q 67 415 69 417 q 72 419 73 419 z"},"B":{"x_min":0,"x_max":584,"ha":584,"o":"m 188 361 l 265 361 q 331 361 370 390 q 410 420 410 481 q 410 518 397 546 q 384 575 364 592 q 344 609 322 617 q 299 626 277 626 q 251 626 235 625 q 219 623 209 621 q 200 619 196 612 q 191 606 190 601 q 189 595 189 583 q 188 442 188 361 z m 147 645 q 170 645 213 647 q 256 650 272 650 q 326 650 365 640 q 405 629 427 614 q 450 599 463 577 q 477 555 480 535 q 484 516 484 493 q 484 454 458 418 q 432 382 393 362 l 393 360 q 462 340 503 296 q 543 253 543 184 q 543 156 537 131 q 530 106 513 81 q 496 55 469 37 q 441 18 397 7 q 352 -5 294 -5 q 244 -5 204 -2 q 164 0 148 0 q 121 0 80 -2 q 40 -4 20 -5 q 15 0 15 7 q 15 14 20 18 q 40 19 50 20 q 61 21 73 24 q 84 28 89 33 q 94 39 98 49 q 103 59 104 73 q 106 87 106 109 q 108 220 108 321 q 108 425 106 536 q 106 558 104 572 q 103 585 98 596 q 94 606 89 611 q 84 617 73 620 q 62 624 51 625 q 40 626 20 627 q 15 631 15 638 q 15 646 20 650 q 41 649 81 647 q 120 645 147 645 z m 189 85 q 190 55 208 37 q 226 18 273 18 q 317 18 351 27 q 384 35 404 49 q 423 62 436 82 q 448 102 452 121 q 457 141 457 165 q 457 200 445 230 q 433 260 410 284 q 386 309 348 323 q 309 337 259 337 l 188 337 l 188 321 q 188 200 189 85 z"},"K":{"x_min":0,"x_max":646,"ha":646,"o":"m 192 109 q 193 77 196 60 q 199 43 210 33 q 222 24 235 22 q 249 20 279 18 q 283 14 283 7 q 283 0 279 -5 q 257 -4 217 -2 q 177 0 150 0 q 122 0 81 -2 q 41 -4 20 -5 q 16 0 16 7 q 16 14 20 18 q 35 19 44 19 q 53 20 62 22 q 72 23 77 26 q 83 29 88 33 q 94 38 96 44 q 99 50 102 60 q 104 70 105 81 q 105 93 106 109 q 110 275 110 321 q 110 370 106 536 q 105 552 105 564 q 104 575 102 585 q 99 595 96 601 q 94 607 88 612 q 83 616 77 619 q 72 622 62 623 q 53 625 44 626 q 35 626 20 627 q 16 631 16 638 q 16 646 20 650 q 42 649 81 647 q 121 645 148 645 q 176 645 217 647 q 258 649 279 650 q 283 646 283 638 q 283 631 279 627 q 249 625 235 623 q 222 621 210 612 q 199 602 196 585 q 193 568 192 536 q 189 422 189 342 q 243 346 280 386 l 440 562 q 455 578 457 591 q 458 603 450 610 q 441 618 429 622 q 417 626 402 627 q 397 631 397 638 q 397 646 402 650 q 423 649 461 647 q 499 645 520 645 q 541 645 572 647 q 603 649 625 650 q 629 646 629 638 q 629 631 625 627 q 544 617 489 558 l 342 407 q 326 391 318 380 q 310 370 308 366 q 307 362 307 358 q 307 347 320 333 l 539 73 q 576 28 637 18 q 642 14 642 7 q 642 0 637 -5 q 615 -4 581 -2 q 546 0 526 0 q 509 0 497 -2 q 485 -4 478 -5 q 473 -5 473 1 q 469 31 437 73 l 280 271 q 264 291 240 302 q 215 313 189 314 q 189 229 192 109 z"},"R":{"x_min":0,"x_max":625,"ha":625,"o":"m 187 293 q 187 235 189 85 q 189 67 193 56 q 197 44 203 37 q 209 30 223 26 q 236 22 249 21 q 262 20 286 18 q 291 14 291 7 q 291 0 286 -5 q 266 -4 224 -2 q 181 0 150 0 q 122 0 81 -2 q 41 -4 20 -5 q 16 0 16 7 q 16 14 20 18 q 41 19 51 20 q 61 21 73 24 q 84 27 89 32 q 94 37 98 46 q 103 56 104 69 q 105 83 106 103 q 108 269 108 321 q 108 370 106 536 q 105 558 104 572 q 103 585 99 596 q 94 606 89 612 q 84 617 73 621 q 62 624 51 625 q 40 626 20 627 q 16 631 16 638 q 16 646 20 650 q 42 649 81 647 q 121 645 148 645 q 170 645 221 650 q 273 655 284 655 q 337 655 378 643 q 419 630 442 613 q 466 595 481 571 q 496 547 501 526 q 506 506 506 486 q 506 451 495 419 q 484 386 456 355 q 427 323 383 306 l 508 88 q 529 53 557 32 q 585 11 617 11 q 620 5 620 4 q 620 2 618 -3 q 604 -10 566 -10 q 524 -10 489 15 q 455 40 431 79 l 324 253 q 315 269 312 273 q 308 278 298 282 q 288 287 272 287 q 206 287 187 293 z m 189 583 q 187 417 187 321 l 187 316 q 209 311 266 311 q 418 311 418 468 q 418 513 406 546 q 394 580 373 597 q 353 615 329 623 q 306 631 278 631 q 228 631 209 619 q 190 607 189 583 z"},"T":{"x_min":0,"x_max":597,"ha":597,"o":"m 266 536 q 265 583 255 600 q 245 616 218 616 l 159 616 q 56 616 27 500 q 15 500 3 505 q 22 586 28 653 q 28 656 32 656 q 172 645 265 645 l 351 645 q 450 645 575 656 q 576 656 577 655 q 578 653 578 653 q 580 583 591 508 q 580 503 567 503 q 542 616 428 616 l 396 616 q 369 616 360 600 q 351 584 349 536 q 347 469 347 320 q 347 192 349 109 q 350 88 352 73 q 354 59 360 49 q 366 39 372 33 q 378 28 391 24 q 404 21 415 20 q 426 19 447 18 q 451 14 451 7 q 451 0 447 -5 q 427 -4 383 -2 q 338 0 308 0 q 277 0 232 -2 q 187 -4 168 -5 q 164 0 164 7 q 164 14 168 18 q 188 19 200 20 q 211 21 224 24 q 236 28 243 33 q 249 39 255 49 q 261 59 263 73 q 266 88 266 109 q 268 192 268 321 q 268 459 266 536 z"},"P":{"x_min":0,"x_max":529,"ha":529,"o":"m 187 296 q 187 235 189 85 q 189 70 192 60 q 194 50 201 43 q 208 36 215 31 q 222 27 235 24 q 249 21 260 20 q 272 19 292 18 q 296 14 296 7 q 296 0 292 -5 q 272 -4 227 -2 q 181 0 150 0 q 122 0 81 -2 q 41 -4 20 -5 q 16 0 16 7 q 16 14 20 18 q 40 19 51 20 q 61 21 73 24 q 84 28 89 33 q 93 38 98 49 q 103 59 104 73 q 105 87 106 109 q 108 194 108 321 q 108 370 106 536 q 105 558 104 572 q 103 585 99 596 q 94 606 89 612 q 84 617 73 621 q 62 624 51 625 q 40 626 20 627 q 16 631 16 638 q 16 646 20 650 q 42 649 81 647 q 121 645 148 645 q 170 645 221 650 q 273 655 284 655 q 337 655 378 643 q 419 630 442 613 q 466 595 481 571 q 496 547 501 526 q 506 506 506 486 q 506 458 499 432 q 493 406 476 379 q 459 353 433 333 q 408 312 366 300 q 324 287 272 287 q 215 287 187 296 z m 189 583 q 187 417 187 321 l 187 316 q 209 311 266 311 q 418 311 418 468 q 418 513 406 546 q 394 580 373 597 q 353 615 329 623 q 306 631 278 631 q 228 631 209 619 q 190 607 189 583 z"},"|":{"x_min":0,"x_max":205,"ha":205,"o":"m 125 -232 l 81 -232 l 81 698 l 125 698 z"},"t":{"x_min":0,"x_max":300,"ha":300,"o":"m 47 409 l 91 409 q 91 456 90 486 q 89 516 89 527 q 88 538 88 540 q 88 544 92 547 q 96 550 106 553 q 117 556 121 558 q 127 561 135 565 l 149 572 q 155 575 158 575 q 165 575 165 566 q 162 529 161 466 l 160 409 l 275 409 q 282 409 282 403 l 282 392 q 282 386 275 383 q 268 380 259 380 l 160 380 q 152 193 155 121 q 157 72 163 53 q 169 33 187 33 q 206 33 229 43 q 253 52 272 67 q 277 65 279 63 q 281 61 282 53 q 255 22 221 6 q 187 -10 153 -10 q 119 -10 103 13 q 86 35 86 85 q 86 110 88 219 q 91 328 91 380 l 35 380 q 30 380 30 386 l 30 395 q 30 409 47 409 z"},"M":{"x_min":0,"x_max":823,"ha":823,"o":"m 651 103 l 625 534 l 624 534 l 398 5 q 393 -6 384 -6 q 374 -6 370 5 l 163 524 l 161 524 l 123 110 q 118 63 130 42 q 142 21 188 18 q 193 14 193 7 q 193 0 188 -5 q 175 -4 145 -2 q 115 0 103 0 q 90 0 59 -2 q 28 -4 15 -5 q 10 0 10 7 q 10 14 15 18 q 56 21 70 41 q 84 60 89 108 l 133 533 q 135 561 136 579 q 136 596 128 606 q 120 617 106 621 q 92 625 65 627 q 61 631 61 638 q 61 646 65 650 l 200 645 l 404 137 q 409 126 412 125 q 413 125 414 125 q 417 125 418 127 q 419 128 423 138 l 636 645 l 768 650 q 772 646 772 638 q 772 631 768 627 q 743 625 728 620 q 713 614 706 603 q 700 593 698 578 q 697 562 699 542 l 731 108 q 733 84 735 72 q 736 61 740 49 q 743 37 747 33 q 750 29 760 25 q 770 21 780 20 q 789 19 809 18 q 813 14 813 7 q 813 0 809 -5 q 796 -4 753 -2 q 710 0 694 0 q 682 0 647 -2 q 612 -4 587 -5 q 583 0 583 7 q 583 14 587 18 q 607 19 615 20 q 624 20 634 24 q 644 27 646 31 q 648 35 651 46 q 654 57 653 68 q 653 75 651 103 z"},"g":{"x_min":0,"x_max":483,"ha":483,"o":"m 307 266 q 307 326 282 361 q 256 396 212 396 q 173 396 153 367 q 132 339 132 288 q 132 150 224 150 q 238 150 252 156 q 266 162 279 174 q 292 187 299 211 q 307 234 307 266 z m 126 -10 q 93 -49 93 -109 q 93 -157 127 -189 q 162 -221 211 -221 q 278 -221 334 -184 q 391 -147 391 -97 q 391 -56 342 -28 q 323 -18 299 -14 q 275 -11 234 -11 q 229 -11 205 -13 q 181 -14 164 -14 q 141 -14 126 -10 z m 423 369 q 416 369 408 375 q 400 380 397 386 q 389 398 378 398 q 369 398 357 390 q 344 383 339 375 q 360 353 370 331 q 379 309 379 276 q 379 209 332 168 q 285 127 219 127 q 173 127 133 150 q 112 120 112 94 q 112 69 133 52 q 153 34 176 34 q 177 34 205 36 q 243 41 269 41 q 369 41 408 9 q 450 -26 450 -72 q 450 -109 427 -142 q 403 -175 365 -198 q 326 -220 278 -233 q 230 -246 182 -246 q 143 -246 110 -234 q 76 -223 52 -195 q 29 -167 29 -128 q 29 -96 51 -61 q 72 -25 109 -3 q 85 5 70 24 q 55 42 55 71 q 55 123 107 167 q 84 189 72 214 q 60 239 60 274 q 60 338 107 378 q 154 419 220 419 q 280 419 319 392 q 336 415 365 427 q 394 440 415 440 q 434 440 447 430 q 459 420 459 405 q 459 391 448 380 q 437 369 423 369 z"},"j":{"x_min":0,"x_max":272,"ha":272,"o":"m 99 599 q 99 617 116 632 q 133 647 151 647 q 170 647 185 630 q 199 614 199 595 q 199 579 183 563 q 167 547 147 547 q 129 547 114 563 q 99 580 99 599 z m 113 307 q 112 330 109 342 q 107 353 99 361 q 91 368 81 371 q 70 373 48 375 q 44 387 46 393 q 142 405 183 422 q 196 422 196 415 q 193 361 192 311 q 189 227 189 173 q 189 153 191 64 q 193 -51 174 -115 q 155 -178 117 -209 q 76 -243 7 -243 q -11 -243 -29 -231 q -48 -220 -48 -200 q -48 -188 -37 -180 q -26 -172 -16 -172 q -10 -172 -4 -173 q 1 -175 6 -179 l 14 -185 q 17 -186 22 -192 q 27 -198 28 -198 q 39 -209 59 -209 q 71 -209 79 -200 q 88 -191 93 -175 q 99 -158 102 -136 q 106 -115 108 -87 q 110 -59 111 -31 q 112 -3 113 30 q 114 46 114 50 q 116 104 116 177 q 116 240 113 307 z"},"i":{"x_min":0,"x_max":267,"ha":267,"o":"m 90 599 q 90 617 107 632 q 124 647 142 647 q 162 647 176 631 q 190 614 190 595 q 190 579 174 563 q 158 547 138 547 q 120 547 105 563 q 90 580 90 599 z m 176 109 q 176 87 177 73 q 178 60 182 49 q 186 39 190 33 q 193 28 203 25 q 212 21 221 20 q 230 19 248 18 q 252 14 252 7 q 252 0 248 -5 q 229 -4 196 -2 q 163 0 140 0 q 117 0 83 -2 q 49 -4 31 -5 q 26 0 26 7 q 26 14 31 18 q 49 20 57 21 q 66 22 76 26 q 85 29 89 34 q 93 39 96 50 q 100 60 101 73 q 103 87 103 109 q 105 168 105 221 q 105 248 103 307 q 102 330 100 342 q 98 354 90 361 q 82 368 72 371 q 61 373 38 375 q 34 387 36 393 q 125 404 169 422 q 182 422 182 415 q 178 361 176 312 q 174 271 174 220 q 174 202 175 156 q 176 111 176 109 z"},"y":{"x_min":0,"x_max":495,"ha":495,"o":"m 185 -173 q 147 -241 93 -241 q 73 -241 61 -231 q 48 -221 48 -206 q 48 -195 58 -184 q 68 -173 87 -173 q 91 -173 101 -176 q 111 -178 118 -178 q 135 -178 150 -167 q 165 -156 173 -140 q 200 -84 211 -52 q 227 -8 198 57 l 90 308 q 69 357 55 373 q 40 389 10 392 q 5 396 5 403 q 5 410 10 414 q 12 414 40 412 q 68 409 87 409 q 106 409 143 411 q 181 414 195 414 q 199 410 199 403 q 199 396 195 392 q 178 391 168 386 q 158 381 154 375 q 149 369 150 359 q 151 349 154 340 q 157 331 163 317 l 248 119 q 254 105 267 106 q 279 106 284 118 l 379 337 q 389 360 373 375 q 356 390 330 392 q 326 396 326 403 q 326 410 330 414 q 346 414 373 411 q 399 409 417 409 q 432 409 454 411 q 476 414 485 414 q 489 410 489 403 q 489 396 485 392 q 461 390 438 366 q 414 343 402 318 q 340 187 225 -91 q 203 -140 185 -173 z"},"@":{"x_min":0,"x_max":895,"ha":895,"o":"m 569 316 q 569 344 550 361 q 532 379 504 379 q 486 379 458 369 q 431 359 411 339 q 340 268 340 162 q 340 122 360 95 q 380 68 424 68 q 454 68 492 119 q 530 170 551 231 q 569 284 569 316 z m 577 74 q 577 68 581 65 q 585 62 588 62 q 628 62 659 72 q 690 83 715 106 q 739 129 752 172 q 765 214 765 275 q 765 334 745 386 q 726 438 693 473 q 661 509 621 535 q 580 561 539 573 q 498 585 459 585 q 412 585 367 572 q 321 560 279 532 q 236 504 204 465 q 171 425 152 367 q 133 310 133 241 q 133 208 138 174 q 143 139 155 102 q 167 65 186 32 q 204 -1 231 -31 q 259 -61 293 -83 q 327 -104 373 -117 q 419 -130 473 -130 q 584 -130 674 -59 l 687 -77 q 634 -118 583 -138 q 532 -158 454 -158 q 366 -158 292 -128 q 217 -99 167 -47 q 116 4 88 74 q 59 144 59 223 q 59 302 92 374 q 125 446 179 498 q 234 550 310 580 q 386 611 469 611 q 548 611 617 586 q 687 561 735 517 q 783 473 811 412 q 839 352 839 282 q 839 246 830 212 q 821 177 800 143 q 778 109 746 84 q 714 59 664 43 q 614 27 551 27 q 531 27 523 40 q 515 52 515 68 q 515 84 530 131 l 528 132 q 497 80 461 53 q 424 27 395 27 q 360 27 334 41 q 309 54 296 75 q 284 97 278 116 q 273 135 273 153 q 273 205 294 253 q 316 302 350 335 q 383 369 425 390 q 466 410 506 410 q 531 410 553 398 q 575 386 582 367 l 589 392 l 635 404 l 650 399 l 590 141 q 577 86 577 74 z"},".":{"x_min":0,"x_max":220,"ha":220,"o":"m 60 47 q 60 64 77 80 q 94 95 112 95 q 131 95 146 79 q 160 62 160 43 q 160 26 144 11 q 128 -5 108 -5 q 90 -5 75 11 q 60 27 60 47 z"},"p":{"x_min":0,"x_max":492,"ha":492,"o":"m 167 329 q 154 315 152 277 l 150 100 q 150 74 155 60 q 160 46 174 33 q 196 13 237 13 q 268 13 292 25 q 317 37 333 56 q 349 75 359 100 q 370 125 374 149 q 378 173 378 198 q 378 277 342 331 q 305 385 258 385 q 221 385 167 329 z m 159 351 q 191 383 225 401 q 258 419 285 419 q 333 419 372 391 q 411 364 432 319 q 454 274 454 224 q 454 114 383 44 q 326 -10 243 -10 q 203 -10 165 5 q 159 7 156 8 q 154 8 152 6 q 150 4 150 -2 q 150 -88 152 -138 q 153 -160 154 -172 q 155 -184 159 -195 q 163 -206 167 -210 q 170 -214 181 -218 q 191 -222 201 -223 q 210 -224 230 -225 q 234 -229 234 -236 q 234 -242 230 -246 q 213 -246 177 -243 q 142 -241 117 -241 q 95 -241 63 -243 q 31 -246 14 -246 q 10 -242 10 -236 q 10 -229 14 -225 q 39 -224 49 -222 q 60 -220 68 -210 q 77 -200 79 -185 q 81 -170 82 -138 q 83 -101 83 87 q 83 274 82 312 q 80 352 70 363 q 59 373 20 377 q 16 389 18 394 q 96 404 141 421 q 153 421 153 415 q 150 388 150 354 q 150 349 154 349 q 157 349 159 351 z"},"X":{"x_min":0,"x_max":677,"ha":677,"o":"m 551 102 q 584 58 608 39 q 633 20 665 18 q 669 14 669 7 q 670 0 666 -5 q 657 -4 621 -2 q 586 0 563 0 q 541 0 500 -2 q 459 -4 443 -5 q 439 0 439 7 q 439 14 443 18 q 460 19 469 22 q 479 26 482 31 q 485 36 482 45 q 479 54 475 62 q 470 70 460 85 l 336 261 q 325 277 321 277 q 319 277 306 258 l 173 73 q 156 47 165 34 q 174 21 208 18 q 212 14 212 7 q 212 0 208 -5 q 188 -4 151 -2 q 114 0 103 0 q 90 0 58 -2 q 26 -4 13 -5 q 8 0 8 7 q 8 14 13 18 q 48 21 81 41 q 114 60 139 93 l 287 291 q 294 302 294 314 q 294 321 292 326 q 291 330 280 344 l 138 547 q 108 589 82 607 q 56 625 23 627 q 19 631 19 638 q 18 646 22 650 q 31 649 67 647 q 102 645 125 645 q 147 645 188 647 q 229 649 245 650 q 249 646 249 638 q 249 631 245 627 q 228 626 219 622 q 209 619 206 614 q 203 608 206 600 q 208 591 213 582 q 218 573 228 560 l 338 396 q 348 382 354 382 q 357 382 359 384 l 369 397 l 492 572 q 509 597 500 611 q 491 625 458 627 q 453 631 453 638 q 453 646 458 650 q 478 649 514 647 q 551 645 562 645 q 575 645 607 647 q 639 649 652 650 q 657 646 657 638 q 657 631 652 627 q 618 624 585 604 q 552 585 526 552 l 390 375 q 384 368 382 362 q 379 357 379 354 q 378 352 378 346 q 378 339 398 312 z"},"*":{"x_min":0,"x_max":369,"ha":369,"o":"m 168 547 q 150 551 126 551 q 86 551 65 559 q 45 567 45 588 q 45 600 53 609 q 62 618 78 618 q 93 618 107 610 q 121 601 138 588 q 156 574 174 567 q 172 587 161 617 q 151 646 151 659 q 151 675 159 687 q 168 698 181 698 q 195 698 205 689 q 214 680 214 663 q 214 649 205 615 q 196 580 195 566 q 213 574 231 588 q 249 602 262 610 q 276 618 290 618 q 308 618 316 608 q 324 598 324 588 q 324 551 255 551 q 224 551 200 547 q 212 533 235 518 q 258 503 271 490 q 283 478 283 460 q 283 447 274 439 q 265 431 254 431 q 236 431 225 447 q 214 463 203 493 q 191 522 183 535 q 176 522 164 491 q 152 460 141 446 q 130 431 113 431 q 100 431 92 439 q 84 447 84 459 q 84 478 97 491 q 110 504 133 519 q 156 533 168 547 z"},"Y":{"x_min":0,"x_max":610,"ha":610,"o":"m 359 109 q 359 88 361 74 q 362 61 367 50 q 372 40 378 34 q 384 29 396 25 q 408 21 421 20 q 434 19 456 18 q 460 14 460 7 q 460 0 456 -5 q 436 -4 392 -2 q 347 0 317 0 q 286 0 241 -2 q 196 -4 177 -5 q 172 0 172 7 q 172 14 177 18 q 199 19 212 20 q 225 21 237 25 q 249 29 255 34 q 261 40 266 50 q 271 61 272 74 q 273 88 274 109 l 277 259 q 277 270 276 277 q 276 284 273 290 q 271 297 269 300 q 268 303 262 312 q 257 319 253 326 l 122 547 q 93 595 69 609 q 44 625 8 627 q 3 631 3 638 q 2 646 7 650 q 14 650 55 647 q 96 645 119 645 q 141 645 181 647 q 221 649 237 650 q 241 646 241 638 q 241 631 237 627 q 214 626 202 624 q 190 622 184 616 q 177 611 180 602 q 182 593 191 576 l 317 354 q 324 341 330 341 q 335 340 342 352 l 461 576 q 469 591 470 601 q 470 611 462 616 q 454 622 444 624 q 433 625 414 627 q 410 631 410 638 q 410 645 414 649 q 434 648 466 647 q 498 645 510 645 q 523 645 558 647 q 592 648 603 649 q 607 645 607 638 q 607 631 603 627 q 563 623 539 611 q 515 600 496 565 l 369 334 q 356 311 356 268 z"},"c":{"x_min":0,"x_max":419,"ha":419,"o":"m 389 87 q 366 49 339 27 q 311 5 286 -2 q 260 -10 229 -10 q 140 -10 87 48 q 35 105 35 198 q 35 247 53 289 q 71 332 100 359 q 129 387 165 403 q 200 419 236 419 q 304 419 346 393 q 388 368 388 328 q 388 308 374 297 q 359 286 342 286 q 326 286 317 293 q 308 301 306 320 q 297 396 231 396 q 182 396 146 346 q 111 296 111 219 q 111 132 151 79 q 191 27 250 27 q 281 27 315 46 q 350 66 374 97 q 381 96 384 95 q 386 93 389 87 z"},"!":{"x_min":0,"x_max":288,"ha":288,"o":"m 195 585 q 195 556 191 529 q 188 501 182 462 q 176 425 172 392 q 166 341 163 303 q 160 260 159 237 q 158 214 157 210 q 155 190 144 190 q 133 190 131 203 l 128 241 l 122 315 q 119 351 115 392 q 112 425 103 484 q 93 545 93 585 q 93 622 108 640 q 124 658 144 658 q 164 658 179 640 q 195 622 195 585 z m 94 47 q 94 64 111 80 q 128 95 146 95 q 166 95 180 79 q 194 62 194 43 q 194 26 178 11 q 162 -5 142 -5 q 124 -5 109 11 q 94 27 94 47 z"},"/":{"x_min":0,"x_max":317,"ha":317,"o":"m 288 646 l 51 -59 l 15 -59 l 252 646 z"},"[":{"x_min":0,"x_max":356,"ha":356,"o":"m 108 -193 l 108 703 l 320 703 q 324 699 324 693 q 324 688 320 683 q 293 681 274 679 q 255 677 239 674 q 222 670 212 666 q 201 663 193 656 q 185 649 180 642 q 176 635 173 624 q 170 612 170 600 q 169 588 169 571 l 169 -60 q 169 -84 170 -98 q 172 -112 178 -125 q 184 -138 192 -145 q 201 -152 219 -158 q 238 -164 260 -167 q 283 -170 320 -173 q 324 -177 324 -183 q 324 -188 320 -193 z"},"6":{"x_min":0,"x_max":465,"ha":465,"o":"m 130 311 q 121 270 121 229 q 121 180 129 141 q 137 103 150 79 q 163 56 181 41 q 199 26 217 20 q 235 14 255 14 q 294 14 323 60 q 351 105 351 183 q 351 200 348 219 q 345 239 336 262 q 327 285 314 303 q 301 321 278 333 q 256 345 228 345 q 170 345 130 311 z m 137 339 q 159 353 191 362 q 224 370 249 370 q 289 370 320 361 q 351 352 371 336 q 391 320 404 298 q 417 276 423 253 q 428 229 428 202 q 428 175 422 147 q 416 119 401 90 q 386 62 365 39 q 345 17 313 3 q 282 -11 244 -11 q 218 -11 193 -6 q 168 0 141 16 q 113 33 92 58 q 71 84 58 129 q 44 174 44 232 q 44 293 68 357 q 92 421 137 474 q 181 524 231 557 q 282 589 356 611 q 358 609 360 608 q 361 606 361 603 q 362 600 362 598 q 362 596 362 592 q 362 587 362 585 q 313 567 274 539 q 234 510 208 477 q 182 443 165 410 q 148 376 137 339 z"},"r":{"x_min":0,"x_max":357,"ha":357,"o":"m 101 312 q 100 351 89 362 q 78 373 39 377 q 34 385 37 394 q 106 403 155 421 q 165 421 167 415 q 170 406 170 348 q 170 336 174 335 q 176 335 178 339 q 232 419 284 419 q 315 419 329 405 q 342 391 342 373 q 342 355 328 342 q 314 329 297 329 q 293 329 290 330 q 286 331 283 332 q 281 333 278 336 q 274 338 273 340 q 271 341 268 345 q 265 349 264 350 q 263 351 260 355 l 257 360 q 250 369 237 369 q 224 369 194 318 q 173 281 171 249 q 167 186 171 103 q 172 82 173 70 q 174 57 178 47 q 182 37 186 32 q 189 28 200 24 q 211 21 220 20 q 229 19 249 17 q 253 13 253 6 q 253 0 249 -5 q 231 -4 195 -2 q 158 0 136 0 q 116 0 82 -2 q 48 -4 31 -5 q 26 0 26 6 q 26 13 31 17 q 48 18 56 19 q 65 20 74 23 q 83 27 87 32 q 91 37 94 47 q 98 57 99 69 q 100 82 101 103 q 105 207 101 312 z"},"2":{"x_min":0,"x_max":465,"ha":465,"o":"m 61 468 q 61 491 72 516 q 83 540 104 561 q 125 583 158 596 q 191 610 231 610 q 263 610 293 601 q 324 592 351 575 q 377 557 394 527 q 410 497 410 458 q 410 431 403 407 q 396 384 381 362 q 365 339 351 324 q 336 309 310 283 l 209 186 q 202 179 187 161 q 172 142 153 109 q 135 77 135 55 l 323 55 q 349 55 364 80 q 379 104 393 161 q 403 163 412 156 q 411 131 404 83 q 397 35 388 -2 q 342 0 310 0 l 135 0 l 62 -2 q 62 46 84 91 q 106 135 176 205 l 250 278 q 292 320 307 361 q 322 402 322 454 q 322 488 312 515 q 302 542 287 556 q 271 570 256 578 q 240 585 225 585 q 199 585 180 578 q 160 570 150 559 q 140 547 135 536 q 131 524 131 514 q 131 510 135 501 q 139 492 139 490 q 143 477 143 470 q 143 457 129 446 q 115 436 101 436 q 84 436 73 444 q 61 453 61 468 z"},"{":{"x_min":0,"x_max":267,"ha":267,"o":"m 166 562 l 176 386 q 179 326 160 295 q 142 265 101 247 q 145 228 162 194 q 180 160 176 95 l 166 -64 q 163 -124 187 -155 q 212 -188 248 -188 q 252 -192 252 -200 q 252 -208 248 -212 q 208 -212 181 -205 q 155 -199 136 -181 q 117 -164 110 -131 q 103 -99 106 -49 l 116 121 q 119 165 96 197 q 74 229 34 239 l 34 254 q 75 266 96 299 q 118 332 116 370 l 106 554 q 102 638 136 673 q 170 707 248 707 q 252 703 252 695 q 252 688 248 683 q 206 675 185 647 q 163 620 166 562 z"},"9":{"x_min":0,"x_max":465,"ha":465,"o":"m 341 289 q 350 330 350 370 q 350 419 342 458 q 334 496 321 520 q 308 543 290 558 q 272 573 254 579 q 236 585 216 585 q 177 585 148 540 q 120 495 120 416 q 120 399 123 380 q 126 360 135 337 q 144 314 157 296 q 170 278 193 266 q 215 254 243 254 q 301 254 341 289 z m 334 260 q 312 246 280 238 q 248 229 222 229 q 183 229 151 238 q 120 248 100 263 q 80 279 67 301 q 54 323 48 346 q 43 370 43 397 q 43 424 49 452 q 56 480 70 509 q 85 538 106 560 q 126 582 158 596 q 189 610 227 610 q 253 610 278 604 q 302 599 330 583 q 358 566 379 541 q 399 515 413 470 q 427 425 427 367 q 427 306 403 241 q 379 178 334 125 q 290 75 240 42 q 189 9 115 -12 q 113 -11 112 -9 q 111 -7 110 -6 q 109 -4 109 -1 q 109 1 109 3 l 109 9 l 109 14 q 158 32 197 60 q 236 88 263 122 q 289 156 306 189 q 323 223 334 260 z"}," ":{"x_min":0,"x_max":250,"ha":250,"o":""},"I":{"x_min":0,"x_max":303,"ha":303,"o":"m 191 109 q 192 77 196 60 q 199 43 210 33 q 221 24 235 22 q 249 20 278 18 q 283 14 283 7 q 283 0 278 -5 q 257 -4 217 -2 q 177 0 149 0 q 122 0 81 -2 q 40 -4 20 -5 q 15 0 15 7 q 15 14 20 18 q 49 20 63 22 q 77 24 88 33 q 99 43 102 60 q 105 77 106 109 q 109 233 109 321 q 109 412 106 536 q 105 568 102 585 q 99 602 88 612 q 77 621 63 623 q 49 625 20 627 q 15 631 15 638 q 15 646 20 650 q 41 649 81 647 q 121 645 148 645 q 176 645 217 647 q 258 649 278 650 q 283 646 283 638 q 283 631 278 627 q 258 626 248 625 q 237 624 226 621 q 214 617 209 612 q 205 606 200 596 q 195 585 193 571 q 192 558 191 536 q 188 423 188 320 q 188 232 191 109 z"},"H":{"x_min":0,"x_max":729,"ha":729,"o":"m 191 109 q 191 93 192 81 q 193 70 195 60 q 198 50 200 44 q 203 38 209 33 q 214 29 219 26 q 225 23 234 22 q 244 20 253 19 q 262 19 277 18 q 281 14 281 7 q 281 0 277 -5 q 255 -4 216 -2 q 176 0 149 0 q 121 0 81 -2 q 41 -4 20 -5 q 16 0 16 7 q 16 14 20 18 q 35 19 44 19 q 53 20 62 22 q 72 23 77 26 q 83 29 88 33 q 94 38 96 44 q 99 50 102 60 q 104 70 105 81 q 105 93 106 109 q 110 275 110 321 q 110 370 106 536 q 105 552 105 564 q 104 575 102 585 q 99 595 96 601 q 94 607 88 612 q 83 616 77 619 q 72 622 62 623 q 53 625 44 626 q 35 626 20 627 q 16 631 16 638 q 16 646 20 650 q 42 649 81 647 q 120 645 147 645 q 175 645 216 647 q 256 649 277 650 q 281 646 281 638 q 281 631 277 627 q 262 626 253 626 q 244 625 234 623 q 225 622 219 619 q 214 616 209 612 q 203 607 200 601 q 198 595 195 585 q 193 575 192 564 q 191 552 191 536 q 188 432 188 362 q 198 355 352 355 q 528 355 536 362 q 536 459 534 536 q 534 558 532 571 q 530 585 526 596 q 521 606 516 612 q 511 617 499 621 q 488 624 477 625 q 466 626 446 627 q 441 631 441 638 q 441 646 446 650 q 467 649 508 647 q 548 645 575 645 q 603 645 644 647 q 685 649 705 650 q 709 646 709 638 q 709 631 705 627 q 685 626 674 625 q 664 624 652 621 q 641 617 635 612 q 630 606 626 596 q 621 585 619 572 q 618 558 617 536 q 615 451 615 320 q 615 193 617 109 q 618 87 619 73 q 621 60 626 49 q 630 39 635 33 q 641 28 652 24 q 664 21 674 20 q 685 19 705 18 q 709 14 709 7 q 709 0 705 -5 q 684 -4 643 -2 q 603 0 575 0 q 547 0 507 -2 q 466 -4 446 -5 q 441 0 441 7 q 441 14 446 18 q 466 19 477 20 q 488 21 499 24 q 511 28 516 33 q 521 39 526 49 q 530 60 532 73 q 534 87 534 109 q 535 152 535 225 q 536 298 536 322 q 521 329 351 329 q 205 329 188 322 q 188 235 191 109 z"},"4":{"x_min":0,"x_max":465,"ha":465,"o":"m 272 209 q 273 459 271 514 q 151 351 63 209 z m 423 209 q 438 209 438 193 q 438 184 429 178 q 420 172 409 172 l 339 172 q 339 98 340 70 q 340 60 342 52 q 344 45 346 40 q 348 35 353 31 q 359 27 362 25 q 366 23 375 22 q 385 21 391 20 q 396 19 410 18 q 415 14 415 7 q 415 0 410 -5 q 399 -4 365 -2 q 331 0 308 0 q 281 0 239 -2 q 197 -5 190 -5 q 186 0 186 7 q 186 14 190 18 q 204 19 211 20 q 218 21 229 22 q 240 24 246 28 q 252 31 258 37 q 265 42 268 50 q 271 59 271 70 q 272 98 272 172 l 67 172 q 36 172 28 214 q 95 319 173 429 q 250 540 299 599 q 309 610 315 610 l 340 610 l 342 608 q 341 604 341 592 q 341 579 341 556 q 341 533 340 511 q 337 457 338 209 z"},"~":{"x_min":0,"x_max":449,"ha":449,"o":"m 26 209 q 36 260 73 298 q 109 337 154 337 q 186 337 229 305 q 274 272 301 272 q 316 272 334 278 q 352 284 371 300 q 390 315 400 339 q 412 339 417 333 q 406 295 389 270 q 372 244 354 232 q 335 221 322 217 q 309 213 297 213 q 265 213 221 246 q 178 278 148 278 q 121 278 90 258 q 60 237 43 205 q 34 205 26 209 z"},"D":{"x_min":0,"x_max":705,"ha":705,"o":"m 192 109 q 192 87 194 75 q 196 63 203 51 q 209 39 222 32 q 234 26 256 23 q 277 19 309 19 q 354 19 392 27 q 430 35 465 54 q 500 74 525 103 q 550 133 564 179 q 579 225 579 284 q 579 333 569 379 q 560 426 537 471 q 515 516 481 550 q 448 584 397 605 q 347 626 284 626 q 262 626 246 624 q 231 622 221 617 q 211 612 205 605 q 200 599 197 589 q 194 578 193 567 q 192 557 192 541 l 192 536 q 188 368 188 320 q 188 218 192 109 z m 148 645 q 163 645 224 647 q 284 650 322 650 q 393 650 457 623 q 521 595 567 549 q 614 503 641 440 q 669 376 669 308 q 669 237 648 181 q 627 125 594 91 q 561 57 516 35 q 472 12 428 4 q 385 -5 340 -5 q 280 -5 220 -2 q 160 0 150 0 q 122 0 81 -2 q 41 -4 20 -5 q 16 0 16 7 q 16 14 20 18 q 35 19 44 19 q 53 20 62 22 q 72 23 77 26 q 83 29 88 33 q 94 38 96 44 q 99 50 102 60 q 104 70 105 81 q 105 93 106 109 q 110 275 110 321 q 110 370 106 536 q 105 552 105 564 q 104 575 102 585 q 99 595 96 601 q 94 607 88 612 q 83 616 77 619 q 72 622 62 623 q 53 625 44 626 q 35 626 20 627 q 16 631 16 638 q 16 646 20 650 q 42 649 81 647 q 121 645 148 645 z"},"^":{"x_min":0,"x_max":518,"ha":518,"o":"m 259 593 l 157 346 l 112 346 l 239 650 l 281 650 l 407 346 l 362 346 z"},"0":{"x_min":0,"x_max":465,"ha":465,"o":"m 232 585 q 217 585 203 578 q 189 570 173 549 q 158 528 146 496 q 135 464 127 409 q 120 354 120 283 q 120 254 123 222 q 126 189 134 151 q 142 114 154 84 q 166 55 185 35 q 205 15 229 15 q 236 15 244 17 q 251 18 264 24 q 276 29 286 38 q 297 47 307 65 q 318 83 324 106 q 341 168 341 322 q 341 416 322 481 q 303 546 277 568 q 258 585 232 585 z m 228 -10 q 173 -10 130 32 q 86 75 62 144 q 39 213 39 294 q 39 352 50 403 q 60 454 78 491 q 97 528 121 555 q 146 583 174 596 q 202 610 232 610 q 274 610 301 594 q 328 578 354 544 q 422 454 422 303 q 422 236 409 181 q 396 126 376 91 q 356 57 330 33 q 303 10 278 0 q 252 -10 228 -10 z"},"F":{"x_min":0,"x_max":497,"ha":497,"o":"m 189 109 q 189 84 195 68 q 200 51 208 42 q 215 33 231 28 q 247 22 260 21 q 274 19 299 18 q 303 14 303 7 q 303 0 299 -5 q 281 -4 233 -2 q 185 0 152 0 q 124 0 82 -2 q 41 -4 20 -5 q 16 0 16 7 q 16 14 20 18 q 40 19 51 20 q 62 21 73 24 q 83 28 88 33 q 93 39 98 49 q 102 60 104 73 q 105 87 106 109 q 108 191 108 321 q 108 454 106 536 q 105 558 104 572 q 102 585 98 596 q 93 606 88 612 q 83 617 73 621 q 62 624 51 625 q 40 626 20 627 q 16 631 16 638 q 16 646 20 650 l 150 645 l 412 645 q 423 645 431 646 q 438 647 448 649 q 458 651 462 652 q 466 652 466 649 q 467 643 476 586 q 484 530 488 501 q 475 494 464 496 q 445 555 433 575 q 408 616 358 618 l 352 618 l 226 618 q 209 618 199 606 q 190 593 189 574 q 188 538 187 481 q 187 424 187 385 l 187 346 l 304 347 q 332 347 346 350 q 362 352 372 355 q 382 358 387 367 q 392 376 393 386 q 395 395 396 414 q 400 418 407 418 q 414 418 418 414 q 417 404 416 376 q 414 347 414 328 q 414 312 416 289 q 417 266 418 250 q 414 246 407 246 q 400 246 396 250 q 395 266 394 274 q 392 283 387 292 q 382 302 372 306 q 363 311 346 313 q 331 317 304 317 l 187 318 q 186 193 189 109 z"},"`":{"x_min":0,"x_max":392,"ha":392,"o":"m 178 647 l 248 521 q 254 509 254 497 q 254 493 249 490 q 245 486 239 486 q 231 486 210 506 l 96 615 l 98 626 q 129 649 163 649 q 170 649 178 647 z"},"k":{"x_min":0,"x_max":490,"ha":490,"o":"m 81 103 q 83 208 83 355 q 83 528 81 576 q 80 604 77 618 q 75 632 68 640 q 60 648 51 650 q 41 652 20 654 q 14 660 17 673 q 46 675 87 683 q 127 691 145 698 q 158 698 158 689 q 155 663 154 599 q 152 498 152 329 q 152 256 152 223 q 168 225 193 234 q 217 242 232 253 q 268 280 308 331 q 312 336 314 345 q 316 354 315 364 q 314 374 304 382 q 294 390 276 391 q 271 396 271 403 q 271 410 276 414 q 291 414 320 411 q 350 409 370 409 q 389 409 413 411 q 438 414 453 414 q 458 410 458 403 q 458 396 453 391 q 398 386 353 337 l 269 251 q 265 247 265 241 q 265 237 272 228 l 398 70 q 435 23 480 18 q 484 14 484 7 q 484 0 480 -5 q 468 -4 443 -2 q 417 0 401 0 q 384 0 369 -2 q 354 -4 348 -5 q 346 -5 344 0 q 336 31 307 70 l 238 163 q 221 185 205 193 q 188 200 152 200 q 153 129 154 103 q 155 72 157 56 q 159 41 168 32 q 177 23 188 21 q 198 20 223 18 q 228 14 228 7 q 228 0 223 -5 q 206 -4 173 -2 q 140 0 117 0 q 95 0 62 -2 q 29 -4 12 -5 q 8 0 8 7 q 8 14 12 18 q 29 19 38 20 q 46 21 55 24 q 64 27 68 32 q 71 37 75 47 q 79 57 80 69 q 81 82 81 103 z"},"u":{"x_min":0,"x_max":507,"ha":507,"o":"m 197 -10 q 79 -10 84 120 q 88 221 84 316 q 82 361 71 375 q 60 388 25 391 q 21 396 21 403 q 21 410 25 414 q 95 412 116 412 q 139 412 149 414 q 157 414 157 408 q 154 354 153 320 q 149 225 153 133 q 155 66 169 46 q 182 25 225 25 q 243 25 273 41 q 304 58 331 81 l 338 87 q 341 90 342 91 q 343 91 344 94 q 346 97 346 99 q 346 102 346 108 q 350 211 346 314 q 344 361 333 375 q 323 389 287 391 q 283 396 283 403 q 283 410 287 414 q 357 412 378 412 q 402 412 412 414 q 419 414 419 408 q 416 353 415 320 q 411 214 415 114 q 417 76 429 62 q 441 47 485 44 q 489 40 489 36 q 489 33 485 29 q 417 21 379 -10 q 368 -13 361 -10 q 350 25 350 47 q 350 52 345 52 q 340 51 336 48 q 302 21 264 5 q 226 -10 197 -10 z"},"]":{"x_min":0,"x_max":356,"ha":356,"o":"m 248 704 l 248 -192 l 36 -192 q 26 -182 36 -172 q 72 -169 95 -167 q 118 -164 136 -158 q 154 -152 163 -145 q 172 -138 178 -125 q 184 -112 186 -98 q 187 -84 187 -60 l 187 571 q 187 595 186 609 q 184 623 178 636 q 172 649 164 656 q 155 663 136 669 q 118 675 95 678 q 73 681 36 684 q 26 694 36 704 z"},"U":{"x_min":0,"x_max":668,"ha":668,"o":"m 179 269 q 179 207 190 157 q 201 107 234 76 q 292 21 352 21 q 387 21 416 30 q 444 38 464 52 q 483 66 498 87 q 512 107 521 129 q 529 150 534 177 q 539 205 541 227 q 542 250 542 277 l 542 536 q 542 549 542 559 q 542 568 540 577 q 538 585 537 591 q 536 597 531 602 q 527 607 525 610 q 522 613 515 616 q 507 619 503 620 q 500 621 489 623 q 478 625 471 625 q 465 625 450 627 q 446 631 446 638 q 446 646 450 650 q 474 649 506 647 q 538 645 560 645 q 579 645 606 647 q 634 649 658 650 q 663 646 663 638 q 663 631 658 627 q 616 622 604 616 q 585 605 582 567 q 580 555 580 536 l 580 295 q 580 238 574 194 q 568 151 552 111 q 535 71 508 46 q 481 20 437 5 q 392 -10 332 -10 q 302 -10 273 -4 q 244 1 212 18 q 180 35 156 61 q 132 87 116 132 q 100 177 100 236 l 100 321 q 100 452 98 536 q 98 558 96 572 q 94 585 90 596 q 85 606 80 612 q 75 617 63 621 q 52 624 41 625 q 30 626 10 627 q 5 631 5 638 q 5 646 10 650 q 31 649 72 647 q 112 645 140 645 q 168 645 209 647 q 250 649 270 650 q 274 646 274 638 q 274 631 270 627 q 250 626 239 625 q 228 624 217 621 q 205 617 200 612 q 195 606 190 596 q 185 585 184 571 q 182 559 181 536 q 179 465 179 383 z"},"o":{"x_min":0,"x_max":482,"ha":482,"o":"m 40 195 q 40 291 93 352 q 150 419 242 419 q 284 419 319 406 q 354 393 376 372 q 398 351 413 322 q 429 294 435 264 q 442 235 442 204 q 442 158 427 116 q 411 74 380 44 q 325 -10 240 -10 q 192 -10 153 8 q 113 26 89 56 q 65 86 53 122 q 40 157 40 195 z m 228 396 q 197 396 175 380 q 152 364 140 337 q 127 310 122 280 q 116 250 116 217 q 116 187 124 154 q 132 120 147 88 q 163 56 191 34 q 219 13 254 13 q 272 13 291 22 q 309 30 327 48 q 344 66 355 99 q 366 131 366 174 q 366 276 328 336 q 290 396 228 396 z"},"N":{"x_min":0,"x_max":697,"ha":697,"o":"m 555 525 q 555 549 553 563 q 552 579 547 590 q 542 602 537 607 q 532 613 521 617 q 509 622 498 623 q 488 625 467 627 q 463 631 463 638 q 463 646 467 650 q 491 649 522 647 q 553 645 575 645 q 597 645 628 647 q 660 649 683 650 q 687 646 687 638 q 687 631 683 627 q 663 625 652 623 q 641 622 629 617 q 618 613 613 607 q 607 601 603 589 q 598 578 597 563 q 596 548 596 525 l 595 21 l 595 15 l 595 10 l 595 5 q 595 1 594 0 q 594 -1 593 -3 q 593 -5 592 -6 q 591 -7 590 -8 q 588 -9 587 -10 q 585 -10 583 -10 q 560 -10 542 14 l 193 455 q 167 488 160 488 q 146 488 146 439 l 147 120 q 147 96 149 81 q 150 66 155 55 q 160 43 165 38 q 169 32 181 28 q 193 23 203 22 q 214 20 234 18 q 239 14 239 7 q 239 0 234 -5 q 210 -4 180 -2 q 149 0 127 0 q 105 0 74 -2 q 42 -4 20 -5 q 15 0 15 7 q 15 14 20 18 q 40 20 51 22 q 62 23 73 28 q 84 32 90 38 q 95 44 99 56 q 104 67 105 82 q 106 97 106 120 l 107 550 q 87 620 23 624 q 19 628 19 635 q 19 643 23 647 l 152 645 l 496 203 l 511 184 l 523 167 l 531 157 q 536 152 538 150 q 541 148 543 148 q 549 148 552 156 q 556 164 556 178 z"},"+":{"x_min":0,"x_max":527,"ha":527,"o":"m 285 254 l 461 254 l 461 210 l 285 210 l 285 34 l 239 34 l 239 210 l 66 210 l 66 254 l 239 254 l 239 431 l 285 431 z"},"G":{"x_min":0,"x_max":710,"ha":710,"o":"m 374 658 q 416 658 451 651 q 486 644 506 635 q 526 627 549 620 q 572 613 592 613 q 602 563 614 459 q 606 453 590 453 q 536 631 360 631 q 312 631 269 608 q 225 584 192 545 q 159 505 139 448 q 119 391 119 327 q 119 287 130 244 q 141 202 164 161 q 187 120 219 88 q 250 56 296 36 q 341 16 392 16 q 432 16 473 33 q 514 49 540 74 l 540 236 q 540 264 522 272 q 505 280 458 284 q 454 289 454 297 q 454 306 458 310 q 479 310 520 307 q 561 305 582 305 q 604 305 629 307 q 654 310 665 310 q 669 306 669 297 q 669 289 665 284 q 642 282 630 271 q 619 261 619 236 l 619 111 q 619 95 635 83 q 581 37 518 14 q 454 -10 369 -10 q 295 -10 232 16 q 168 41 125 84 q 82 127 57 185 q 32 243 32 307 q 32 372 51 428 q 70 484 103 526 q 136 568 179 598 q 223 628 272 643 q 322 658 374 658 z"},"q":{"x_min":0,"x_max":480,"ha":480,"o":"m 307 361 q 275 396 232 396 q 176 396 143 344 q 109 292 109 216 q 109 174 119 140 q 128 106 144 85 q 159 63 179 49 q 199 34 218 28 q 236 22 254 22 q 293 22 317 35 q 332 42 332 73 q 332 243 330 293 q 328 337 307 361 z m 330 -139 l 332 0 q 332 14 326 15 q 321 16 304 5 q 280 -10 231 -10 q 191 -10 158 3 q 125 16 102 37 q 80 59 64 86 q 48 113 41 141 q 33 169 33 197 q 33 292 91 355 q 148 419 235 419 q 301 419 343 391 q 352 387 354 388 q 355 389 365 403 q 372 413 376 417 q 380 421 385 421 q 392 421 396 415 q 399 408 399 398 q 397 360 397 129 q 397 -102 399 -139 q 400 -160 401 -173 q 402 -186 406 -196 q 409 -206 413 -211 q 416 -215 425 -219 q 434 -223 443 -223 q 451 -224 468 -225 q 472 -229 472 -236 q 472 -242 468 -246 q 450 -246 418 -243 q 387 -241 365 -241 q 343 -241 311 -243 q 278 -246 261 -246 q 257 -242 257 -236 q 257 -229 261 -225 q 278 -224 286 -223 q 295 -223 304 -219 q 313 -215 316 -211 q 320 -206 323 -196 q 327 -186 328 -173 q 329 -160 330 -139 z"},"d":{"x_min":0,"x_max":487,"ha":487,"o":"m 329 108 l 331 309 q 331 331 328 340 q 325 349 315 361 q 285 395 235 395 q 173 395 141 347 q 129 331 121 295 q 113 259 113 211 q 113 127 147 76 q 182 25 224 25 q 262 25 314 71 q 323 80 326 87 q 329 94 329 108 z m 318 48 q 280 18 253 4 q 226 -10 199 -10 q 124 -10 80 47 q 37 104 37 194 q 37 295 103 361 q 133 390 167 404 q 201 419 246 419 q 260 419 278 415 q 295 410 308 406 q 321 402 322 402 q 331 402 331 411 q 331 526 329 576 q 328 600 326 613 q 324 626 322 635 q 319 644 312 647 q 305 650 299 651 q 292 652 277 653 q 271 654 268 654 q 260 662 262 673 q 292 675 332 683 q 373 691 390 698 q 402 698 402 689 q 400 661 398 599 q 396 562 396 356 q 396 151 398 114 q 399 76 412 62 q 424 47 468 44 q 476 36 468 29 q 395 20 358 -10 q 347 -13 340 -10 q 330 24 330 47 q 330 50 328 51 q 326 52 323 51 q 320 50 318 48 z"},"1":{"x_min":0,"x_max":465,"ha":465,"o":"m 285 109 q 286 87 288 73 q 289 60 294 49 q 298 39 303 33 q 308 28 319 24 q 331 21 341 20 q 352 19 372 18 q 376 14 376 7 q 376 0 372 -5 q 350 -4 314 -2 q 278 0 253 0 q 226 0 187 -2 q 148 -4 127 -5 q 123 0 123 7 q 123 14 127 18 q 147 19 158 20 q 168 21 180 24 q 191 28 196 33 q 201 39 205 49 q 210 60 211 73 q 213 87 214 109 q 215 153 215 279 q 215 410 214 455 q 213 485 209 499 q 205 513 194 513 q 167 513 107 488 q 93 497 92 510 q 221 570 285 610 q 291 610 291 605 q 289 586 285 471 q 284 427 284 290 q 284 153 285 109 z"},"5":{"x_min":0,"x_max":465,"ha":465,"o":"m 325 189 q 325 267 290 309 q 255 351 203 351 q 140 351 76 327 l 110 605 q 168 600 218 600 q 277 600 382 611 l 389 607 l 373 549 q 312 543 268 543 q 225 543 141 552 l 121 375 q 137 381 168 386 q 199 391 229 391 q 283 391 325 365 q 366 339 387 298 q 408 256 408 207 q 408 112 348 51 q 289 -11 196 -11 q 167 -11 134 -1 q 102 9 78 27 q 54 44 54 64 q 54 78 65 87 q 77 95 92 95 q 118 95 143 63 q 145 61 152 51 q 158 41 162 37 q 166 33 173 26 q 181 20 189 17 q 198 14 209 14 q 254 14 290 66 q 325 118 325 189 z"}}}
